<svg id="レイヤー_1" data-name="レイヤー 1" xmlns="http://www.w3.org/2000/svg" viewBox="0 0 350 350"><defs><style>.cls-1{fill:#231815;}.cls-2,.cls-3{fill:none;stroke:#231815;stroke-linecap:round;stroke-width:9px;}.cls-2{stroke-linejoin:round;}.cls-3{stroke-miterlimit:10;}</style></defs><title>アートボード 9</title><path class="cls-1" d="M67.19,183.26A54.64,54.64,0,1,1,12.55,237.9a54.7,54.7,0,0,1,54.64-54.64m0-10a64.64,64.64,0,1,0,64.64,64.64,64.64,64.64,0,0,0-64.64-64.64Z"/><path class="cls-1" d="M282.81,183.26a54.64,54.64,0,1,1-54.64,54.64,54.7,54.7,0,0,1,54.64-54.64m0-10a64.64,64.64,0,1,0,64.64,64.64,64.64,64.64,0,0,0-64.64-64.64Z"/><polygon class="cls-2" points="67.19 237.9 121.63 150.78 250.95 150.78 159.45 237.9 67.19 237.9"/><path class="cls-2" d="M282.81,237.9,237.23,105.43l37.14-1s47.07,17.79,6.1,46.37"/><line class="cls-2" x1="159.45" y1="237.9" x2="101.75" y2="104.42"/><ellipse class="cls-1" cx="89.35" cy="100.43" rx="12.4" ry="8.77"/><line class="cls-3" x1="88.2" y1="96.53" x2="133.6" y2="96.53"/></svg>