<?xml version="1.0" encoding="utf-8"?>
<!-- Generator: Adobe Illustrator 21.1.0, SVG Export Plug-In . SVG Version: 6.00 Build 0)  -->
<svg version="1.1" id="レイヤー_1" xmlns="http://www.w3.org/2000/svg" xmlns:xlink="http://www.w3.org/1999/xlink" x="0px"
	 y="0px" viewBox="0 0 350 350" style="enable-background:new 0 0 350 350;" xml:space="preserve">
<style type="text/css">
	.st0{fill:#414F20;}
</style>
<title>アートボード 9</title>
<path class="st0" d="M67.2,183.3c30.2,0,54.6,24.5,54.6,54.6c0,30.2-24.5,54.6-54.6,54.6s-54.6-24.5-54.6-54.6
	C12.6,207.7,37,183.3,67.2,183.3 M67.2,173.3c-35.7,0-64.6,28.9-64.6,64.6s28.9,64.6,64.6,64.6s64.6-28.9,64.6-64.6l0,0
	C131.8,202.2,102.9,173.3,67.2,173.3z"/>
<path class="st0" d="M282.8,183.3c30.2,0,54.6,24.5,54.6,54.6c0,30.2-24.5,54.6-54.6,54.6s-54.6-24.5-54.6-54.6l0,0
	C228.2,207.7,252.6,183.3,282.8,183.3 M282.8,173.3c-35.7,0-64.6,28.9-64.6,64.6s28.9,64.6,64.6,64.6s64.6-28.9,64.6-64.6
	S318.5,173.3,282.8,173.3L282.8,173.3z"/>
<path class="st0" d="M159.5,242.4H67.2c-1.6,0-3.1-0.9-3.9-2.3c-0.8-1.4-0.7-3.2,0.1-4.6l54.4-87.1c0.8-1.3,2.3-2.1,3.8-2.1H251
	c1.8,0,3.5,1.1,4.2,2.8c0.7,1.7,0.3,3.7-1.1,4.9l-91.5,87.1C161.7,242,160.6,242.4,159.5,242.4z M75.3,233.4h82.3l82-78.1H124.1
	L75.3,233.4z"/>
<path class="st0" d="M282.8,242.4c-1.9,0-3.6-1.2-4.3-3L233,106.9c-0.5-1.4-0.3-2.9,0.6-4c0.8-1.2,2.1-1.9,3.6-1.9l37.1-1
	c0.6,0,1.2,0.1,1.7,0.3c1,0.4,23.6,9.1,25.6,25.4c1.2,9.7-5,19.4-18.5,28.9c-2,1.4-4.8,0.9-6.3-1.1c-1.4-2-0.9-4.8,1.1-6.3
	c7.3-5.1,15.7-12.7,14.8-20.4c-1.1-8.6-13.5-15.5-19.1-17.8l-30.1,0.8l43.6,126.7c0.8,2.3-0.4,4.9-2.8,5.7
	C283.8,242.3,283.3,242.4,282.8,242.4z"/>
<path class="st0" d="M159.5,242.4c-1.7,0-3.4-1-4.1-2.7L97.6,106.2c-1-2.3,0.1-4.9,2.3-5.9c2.3-1,4.9,0.1,5.9,2.3l57.7,133.5
	c1,2.3-0.1,4.9-2.3,5.9C160.7,242.3,160,242.4,159.5,242.4z"/>
<ellipse class="st0" cx="89.3" cy="100.4" rx="12.4" ry="8.8"/>
<path class="st0" d="M133.6,101H88.2c-2.5,0-4.5-2-4.5-4.5s2-4.5,4.5-4.5h45.4c2.5,0,4.5,2,4.5,4.5S136.1,101,133.6,101z"/>
</svg>
