<?xml version="1.0" encoding="utf-8"?>
<!-- Generator: Adobe Illustrator 21.1.0, SVG Export Plug-In . SVG Version: 6.00 Build 0)  -->
<svg version="1.1" id="レイヤー_1" xmlns="http://www.w3.org/2000/svg" xmlns:xlink="http://www.w3.org/1999/xlink" x="0px"
	 y="0px" viewBox="0 0 350 350" style="enable-background:new 0 0 350 350;" xml:space="preserve">
<style type="text/css">
	.st0{fill:#414F20;}
	.st1{fill:none;stroke:#414F20;stroke-width:5;stroke-miterlimit:10;}
</style>
<title>アートボード 12</title>
<path class="st0" d="M311.3,57.5v240H39v-240H311.3 M316.3,52.5H34v250h282.2V52.5z"/>
<path class="st0" d="M82.2,60.5v15.9H47V60.5H82.2 M90.2,52.5H39v31.9h51.1V52.5z"/>
<path class="st0" d="M82.2,84.8v15.9H47V84.8H82.2 M90.2,76.8H39v31.9h51.1V76.8z"/>
<path class="st0" d="M82.2,109v15.9H47V109H82.2 M90.2,101H39v31.9h51.1V101z"/>
<path class="st0" d="M82.2,133.6v15.9H47v-15.9H82.2 M90.2,125.6H39v31.9h51.1C90.2,157.5,90.2,125.6,90.2,125.6z"/>
<path class="st0" d="M82.2,157.5v15.9H47v-15.9H82.2 M90.2,149.5H39v31.9h51.1V149.5z"/>
<path class="st0" d="M82.2,181.7v15.9H47v-15.9H82.2 M90.2,173.7H39v31.9h51.1V173.7z"/>
<path class="st0" d="M82.2,206v15.9H47V206H82.2 M90.2,198H39v31.9h51.1V198z"/>
<path class="st0" d="M82.2,230.6v15.9H47v-15.9H82.2 M90.2,222.6H39v31.9h51.1V222.6z"/>
<path class="st0" d="M82.2,254.4v15.9H47v-15.9H82.2 M90.2,246.4H39v31.9h51.1V246.4z"/>
<path class="st0" d="M82.2,278.7v15.9H47v-15.9H82.2 M90.2,270.7H39v31.9h51.1V270.7z"/>
<path class="st0" d="M303.5,60.5v15.9h-35.2V60.5H303.5 M311.5,52.5h-51.1v31.9h51.1V52.5z"/>
<path class="st0" d="M303.5,84.8v15.9h-35.2V84.8H303.5 M311.5,76.8h-51.1v31.9h51.1V76.8z"/>
<path class="st0" d="M303.5,109v15.9h-35.2V109H303.5 M311.5,101h-51.1v31.9h51.1V101z"/>
<path class="st0" d="M303.5,133.6v15.9h-35.2v-15.9H303.5 M311.5,125.6h-51.1v31.9h51.1C311.5,157.5,311.5,125.6,311.5,125.6z"/>
<path class="st0" d="M303.5,157.5v15.9h-35.2v-15.9H303.5 M311.5,149.5h-51.1v31.9h51.1V149.5z"/>
<path class="st0" d="M303.5,181.7v15.9h-35.2v-15.9H303.5 M311.5,173.7h-51.1v31.9h51.1V173.7z"/>
<path class="st0" d="M303.5,206v15.9h-35.2V206H303.5 M311.5,198h-51.1v31.9h51.1V198z"/>
<path class="st0" d="M303.5,230.6v15.9h-35.2v-15.9H303.5 M311.5,222.6h-51.1v31.9h51.1V222.6z"/>
<path class="st0" d="M303.5,254.4v15.9h-35.2v-15.9H303.5 M311.5,246.4h-51.1v31.9h51.1V246.4z"/>
<path class="st0" d="M303.5,278.7v15.9h-35.2v-15.9H303.5 M311.5,270.7h-51.1v31.9h51.1V270.7z"/>
<polygon class="st0" points="268.1,52.5 255.1,52.5 255.1,302.5 268.1,302.5 268.1,52.5 "/>
<polygon class="st0" points="95.7,52.5 82.7,52.5 82.7,302.5 95.7,302.5 95.7,52.5 "/>
<line class="st1" x1="95.7" y1="181.4" x2="255.1" y2="181.4"/>
</svg>
