<svg id="レイヤー_1" data-name="レイヤー 1" xmlns="http://www.w3.org/2000/svg" viewBox="0 0 350 350"><defs><style>.cls-1{fill:#231815;}.cls-2{fill:none;stroke:#231815;stroke-miterlimit:10;stroke-width:5px;}</style></defs><title>アートボード 12</title><path class="cls-1" d="M311.26,57.53v240H39.05v-240H311.26m5-5H34.05v250H316.26v-250Z"/><path class="cls-1" d="M82.2,60.53V76.41H47.05V60.53H82.2m8-8H39.05V84.41H90.2V52.53Z"/><path class="cls-1" d="M82.2,84.76v15.88H47.05V84.76H82.2m8-8H39.05v31.88H90.2V76.76Z"/><path class="cls-1" d="M82.2,109v15.88H47.05V109H82.2m8-8H39.05v31.88H90.2V101Z"/><path class="cls-1" d="M82.2,133.65v15.88H47.05V133.65H82.2m8-8H39.05v31.88H90.2V125.65Z"/><path class="cls-1" d="M82.2,157.48v15.88H47.05V157.48H82.2m8-8H39.05v31.88H90.2V149.48Z"/><path class="cls-1" d="M82.2,181.71v15.88H47.05V181.71H82.2m8-8H39.05v31.88H90.2V173.71Z"/><path class="cls-1" d="M82.2,206v15.88H47.05V206H82.2m8-8H39.05v31.88H90.2V198Z"/><path class="cls-1" d="M82.2,230.6v15.88H47.05V230.6H82.2m8-8H39.05v31.88H90.2V222.6Z"/><path class="cls-1" d="M82.2,254.43v15.88H47.05V254.43H82.2m8-8H39.05v31.88H90.2V246.43Z"/><path class="cls-1" d="M82.2,278.66v15.88H47.05V278.66H82.2m8-8H39.05v31.88H90.2V270.66Z"/><path class="cls-1" d="M303.51,60.53V76.41H268.36V60.53h35.15m8-8H260.36V84.41h51.15V52.53Z"/><path class="cls-1" d="M303.51,84.76v15.88H268.36V84.76h35.15m8-8H260.36v31.88h51.15V76.76Z"/><path class="cls-1" d="M303.51,109v15.88H268.36V109h35.15m8-8H260.36v31.88h51.15V101Z"/><path class="cls-1" d="M303.51,133.65v15.88H268.36V133.65h35.15m8-8H260.36v31.88h51.15V125.65Z"/><path class="cls-1" d="M303.51,157.48v15.88H268.36V157.48h35.15m8-8H260.36v31.88h51.15V149.48Z"/><path class="cls-1" d="M303.51,181.71v15.88H268.36V181.71h35.15m8-8H260.36v31.88h51.15V173.71Z"/><path class="cls-1" d="M303.51,206v15.88H268.36V206h35.15m8-8H260.36v31.88h51.15V198Z"/><path class="cls-1" d="M303.51,230.6v15.88H268.36V230.6h35.15m8-8H260.36v31.88h51.15V222.6Z"/><path class="cls-1" d="M303.51,254.43v15.88H268.36V254.43h35.15m8-8H260.36v31.88h51.15V246.43Z"/><path class="cls-1" d="M303.51,278.66v15.88H268.36V278.66h35.15m8-8H260.36v31.88h51.15V270.66Z"/><polygon class="cls-1" points="268.13 52.53 255.14 52.53 255.14 302.54 268.13 302.54 268.13 52.53 268.13 52.53"/><polygon class="cls-1" points="95.69 52.53 82.7 52.53 82.7 302.54 95.69 302.54 95.69 52.53 95.69 52.53"/><line class="cls-2" x1="95.69" y1="181.36" x2="255.14" y2="181.36"/></svg>