<svg id="レイヤー_1" data-name="レイヤー 1" xmlns="http://www.w3.org/2000/svg" viewBox="0 0 350 350"><defs><style>.cls-1{fill:#231815;}</style></defs><title>アートボード 11</title><path class="cls-1" d="M72.08,270.73A18.64,18.64,0,0,0,98.3,297.22l73.3-91.89-16-18.11ZM305,57.18l-9.7-9.72L178,164.8l36.68,32.42a15.08,15.08,0,0,0,2.79-2.14L305,79.13a14.41,14.41,0,0,0,4.56-11A15.36,15.36,0,0,0,305,57.18ZM159.18,157.09l9.42-9.42c5-5,3.81-14.36-2.7-20.89L88.75,49.65l-9.5,9.48,68.18,68.17-9.7,9.71L69.55,68.84l-10,9.94L127.77,147l-9.72,9.7L49.89,88.5,40.41,98l77.16,77.15c6.52,6.52,15.87,7.73,20.88,2.71l9.42-9.42L261.53,297.13a18.64,18.64,0,0,0,26.35-26.37Z"/></svg>