<?xml version="1.0" encoding="utf-8"?>
<!-- Generator: Adobe Illustrator 21.1.0, SVG Export Plug-In . SVG Version: 6.00 Build 0)  -->
<svg version="1.1" id="レイヤー_1" xmlns="http://www.w3.org/2000/svg" xmlns:xlink="http://www.w3.org/1999/xlink" x="0px"
	 y="0px" viewBox="0 0 350 350" style="enable-background:new 0 0 350 350;" xml:space="preserve">
<style type="text/css">
	.st0{fill:#414F20;}
</style>
<title>アートボード 11</title>
<path class="st0" d="M72.1,270.7c-7.2,7.4-7,19.2,0.4,26.4c7.2,7,18.6,7,25.8,0.1l73.3-91.9l-16-18.1L72.1,270.7z M305,57.2
	l-9.7-9.7L178,164.8l36.7,32.4c1-0.6,1.9-1.3,2.8-2.1l87.5-116c3-2.8,4.7-6.8,4.6-11C309.6,64,307.9,60.1,305,57.2z M159.2,157.1
	l9.4-9.4c5-5,3.8-14.4-2.7-20.9L88.8,49.6l-9.5,9.5l68.2,68.2l-9.7,9.7L69.6,68.8l-10,9.9l68.2,68.2l-9.7,9.7L49.9,88.5L40.4,98
	l77.2,77.1c6.5,6.5,15.9,7.7,20.9,2.7l9.4-9.4l113.7,128.7c7.3,7.2,19.1,7.1,26.4-0.2c7.1-7.3,7.1-18.9,0-26.1L159.2,157.1z"/>
</svg>
