<?xml version="1.0" encoding="utf-8"?>
<!-- Generator: Adobe Illustrator 21.1.0, SVG Export Plug-In . SVG Version: 6.00 Build 0)  -->
<svg version="1.1" id="レイヤー_1" xmlns="http://www.w3.org/2000/svg" xmlns:xlink="http://www.w3.org/1999/xlink" x="0px"
	 y="0px" viewBox="0 0 350 350" style="enable-background:new 0 0 350 350;" xml:space="preserve">
<style type="text/css">
	.st0{fill:#414F20;}
</style>
<title>アートボード 8</title>
<path class="st0" d="M315.1,172.7c-10.9-44.6-26-91.1-79.8-83.4c-20.8,2.9-36.5,15.1-59.6,15.2c-19.4,0-34.5-12.2-52.3-15.2
	c-53.8-9.1-66.5,16.7-82.1,64.7c-8.8,27.1-37,120.7-5,143.1c32.5,22.7,67.9-39.8,92.3-49.3c21.1-8.2,66.5-7.5,87.3-1.2
	c28.2,8.5,56,62.5,87.8,55.4C347.4,292.2,321.7,199.7,315.1,172.7z M111.8,212.1c-23.4,0-42.4-19-42.4-42.4
	c0-23.4,19-42.4,42.4-42.4c23.4,0,42.4,19,42.4,42.4c0,0,0,0,0,0C154.2,193.1,135.2,212.1,111.8,212.1L111.8,212.1z M243.9,134.5
	c4.8-4.8,12.7-4.8,17.5,0c4.8,4.8,4.8,12.7,0,17.5c-4.8,4.8-12.7,4.8-17.5,0c0,0,0,0,0,0C239.1,147.2,239.1,139.3,243.9,134.5
	C243.9,134.5,243.9,134.5,243.9,134.5L243.9,134.5z M220.3,175.6c-4.8-4.8-4.8-12.7,0-17.5c4.8-4.8,12.7-4.8,17.5,0s4.8,12.7,0,17.5
	c0,0,0,0,0,0C233,180.4,225.2,180.4,220.3,175.6C220.3,175.6,220.3,175.6,220.3,175.6L220.3,175.6z M260.6,198.4
	c-4.8,4.8-12.7,4.8-17.5,0c-4.8-4.8-4.8-12.7,0-17.5c4.8-4.8,12.7-4.8,17.5,0C265.5,185.7,265.5,193.5,260.6,198.4
	C260.6,198.4,260.6,198.4,260.6,198.4L260.6,198.4z M284.2,174.8c-4.8,4.8-12.7,4.8-17.5,0c-4.8-4.8-4.8-12.7,0-17.5
	c4.8-4.8,12.7-4.8,17.5,0c0,0,0,0,0,0c4.9,4.8,5,12.6,0.2,17.5C284.4,174.8,284.4,174.8,284.2,174.8L284.2,174.8z M111.8,144.8
	c-13.8,0-24.9,11.1-24.9,24.9c0,13.8,11.1,24.9,24.9,24.9s24.9-11.1,24.9-24.9c0,0,0,0,0,0C136.7,155.9,125.6,144.8,111.8,144.8
	L111.8,144.8z"/>
</svg>
