<svg id="レイヤー_1" data-name="レイヤー 1" xmlns="http://www.w3.org/2000/svg" viewBox="0 0 350 350"><defs><style>.cls-1{fill:#231815;}</style></defs><title>アートボード 8</title><path class="cls-1" d="M315.12,172.68c-10.88-44.63-26-91.09-79.77-83.45-20.76,2.95-36.47,15.12-59.63,15.18-19.36,0-34.52-12.17-52.32-15.18C69.63,80.15,56.89,105.9,41.28,153.9c-8.83,27.14-37,120.72-5,143.13,32.46,22.7,67.92-39.75,92.34-49.27,21.11-8.21,66.51-7.51,87.33-1.22,28.22,8.52,56,62.46,87.83,55.36C347.37,292.17,321.7,199.68,315.12,172.68Zm-203.29,39.4a42.39,42.39,0,1,1,42.38-42.39A42.39,42.39,0,0,1,111.83,212.08Zm132.09-77.61a12.4,12.4,0,1,1,0,17.53A12.39,12.39,0,0,1,243.92,134.47Zm-23.6,41.13a12.4,12.4,0,1,1,17.53,0A12.39,12.39,0,0,1,220.32,175.6Zm40.3,22.77a12.39,12.39,0,1,1,0-17.53A12.39,12.39,0,0,1,260.61,198.37Zm23.61-23.6a12.4,12.4,0,1,1,0-17.53A12.42,12.42,0,0,1,284.23,174.77Zm-172.39-30a24.91,24.91,0,1,0,24.9,24.91A24.94,24.94,0,0,0,111.83,144.78Z"/></svg>