<svg id="レイヤー_1" data-name="レイヤー 1" xmlns="http://www.w3.org/2000/svg" viewBox="0 0 350 350"><defs><style>.cls-1{fill:#231815;}.cls-2,.cls-3,.cls-4{fill:none;stroke:#231815;stroke-linecap:round;stroke-linejoin:round;}.cls-2{stroke-width:11px;}.cls-3{stroke-width:10px;}.cls-4{stroke-width:12px;}</style></defs><title>アートボード 10</title><path class="cls-1" d="M57.48,205.09a41.22,41.22,0,1,1-41.22,41.22,41.27,41.27,0,0,1,41.22-41.22m0-15a56.22,56.22,0,1,0,56.22,56.22,56.22,56.22,0,0,0-56.22-56.22Z"/><path class="cls-1" d="M286.14,192.33a47.6,47.6,0,1,1-47.6,47.6,47.66,47.66,0,0,1,47.6-47.6m0-15a62.6,62.6,0,1,0,62.6,62.6,62.6,62.6,0,0,0-62.6-62.6Z"/><path class="cls-2" d="M286.14,239.94l-64-168.86S195.47,54.62,169,64.37"/><path class="cls-3" d="M254.7,108.41,272,137.5s-24.91,1.81-50,34-10.7,50.62-28.72,69.86c-9.83,10.5-57.39,4-57.39,4-1.16-25.24-39.56-84.24-109.7-89.47L6.37,123S61,107.23,152.56,121.57c0,0,30.52-16.22,80.72-16.22Z"/><path class="cls-3" d="M271,137.5s32.32-5.35,64.44,6.43"/><line class="cls-4" x1="57.48" y1="246.32" x2="126.26" y2="225.75"/><circle class="cls-1" cx="57.48" cy="246.32" r="17.82"/><circle class="cls-1" cx="286.14" cy="239.94" r="17.82"/></svg>