<?xml version="1.0" encoding="utf-8"?>
<!-- Generator: Adobe Illustrator 21.1.0, SVG Export Plug-In . SVG Version: 6.00 Build 0)  -->
<svg version="1.1" id="レイヤー_1" xmlns="http://www.w3.org/2000/svg" xmlns:xlink="http://www.w3.org/1999/xlink" x="0px"
	 y="0px" viewBox="0 0 350 350" style="enable-background:new 0 0 350 350;" xml:space="preserve">
<style type="text/css">
	.st0{fill:#414F20;}
	.st1{fill:none;stroke:#414F20;stroke-width:11;stroke-linecap:round;stroke-linejoin:round;}
	.st2{fill:none;stroke:#414F20;stroke-width:10;stroke-linecap:round;stroke-linejoin:round;}
	.st3{fill:none;stroke:#414F20;stroke-width:12;stroke-linecap:round;stroke-linejoin:round;}
</style>
<title>アートボード 10</title>
<path class="st0" d="M57.5,205.1c22.8,0,41.2,18.5,41.2,41.2s-18.5,41.2-41.2,41.2s-41.2-18.5-41.2-41.2l0,0
	C16.3,223.6,34.7,205.1,57.5,205.1 M57.5,190.1c-31,0-56.2,25.2-56.2,56.2s25.2,56.2,56.2,56.2s56.2-25.2,56.2-56.2l0,0
	C113.7,215.3,88.5,190.1,57.5,190.1C57.5,190.1,57.5,190.1,57.5,190.1z"/>
<path class="st0" d="M286.1,192.3c26.3,0,47.6,21.3,47.6,47.6c0,26.3-21.3,47.6-47.6,47.6s-47.6-21.3-47.6-47.6
	C238.6,213.7,259.9,192.4,286.1,192.3 M286.1,177.3c-34.6,0-62.6,28-62.6,62.6c0,34.6,28,62.6,62.6,62.6s62.6-28,62.6-62.6
	S320.7,177.3,286.1,177.3C286.1,177.3,286.1,177.3,286.1,177.3z"/>
<path class="st1" d="M286.1,239.9l-64-168.9c0,0-26.7-16.5-53.1-6.7"/>
<path class="st2" d="M254.7,108.4l17.3,29.1c0,0-24.9,1.8-50,34s-10.7,50.6-28.7,69.9c-9.8,10.5-57.4,4-57.4,4
	c-1.2-25.2-39.6-84.2-109.7-89.5L6.4,123c0,0,54.6-15.8,146.2-1.4c0,0,30.5-16.2,80.7-16.2L254.7,108.4z"/>
<path class="st2" d="M271,137.5c0,0,32.3-5.4,64.4,6.4"/>
<line class="st3" x1="57.5" y1="246.3" x2="126.3" y2="225.7"/>
<circle class="st0" cx="57.5" cy="246.3" r="17.8"/>
<circle class="st0" cx="286.1" cy="239.9" r="17.8"/>
</svg>
