<svg id="レイヤー_1" data-name="レイヤー 1" xmlns="http://www.w3.org/2000/svg" viewBox="0 0 350 350"><defs><style>.cls-1{fill:#fff;}.cls-2{fill:#3074b7;}</style></defs><title>アートボード 12</title><circle class="cls-1" cx="175" cy="175" r="136.76"/><path id="css" class="cls-2" d="M4.44,175A170.56,170.56,0,1,1,175,345.56,170.56,170.56,0,0,1,4.44,175ZM78.7,79.7,96.61,275.88,175,297.07,253.48,276,271.39,79.7Zm35.15,39.42,3,23.75h59.84L119.1,167.77l1.83,23.52h83.36l-2.06,31.06L175,229.66l-26.48-6.39L147,203.85H122.3l3.43,37L175,255.69l49.16-13.93L230.55,168H175l57.11-24.21,2.51-24.66Z"/></svg>