<svg id="レイヤー_1" data-name="レイヤー 1" xmlns="http://www.w3.org/2000/svg" viewBox="0 0 350 350"><defs><style>.cls-1{fill:#fff;}.cls-2{fill:#fed93e;}</style></defs><title>アートボード 16</title><circle class="cls-1" cx="175" cy="175" r="136.76"/><path id="js" class="cls-2" d="M4.44,175A170.56,170.56,0,1,1,175,345.56,170.56,170.56,0,0,1,4.44,175ZM78.7,79.7,96.61,275.88,175,297.07,253.48,276,271.39,79.7Zm68.88,40.45h19.58v132l-57.29-15.23-.34-23.47L147.76,223Zm35.49-.15.27,85.4L222.15,199v19.81l-38.82,9.91v23l53-12.85,4-63.87-38.55,3.63V143.56l41.76-.54,1.87-22.49Z"/></svg>