<svg id="レイヤー_1" data-name="レイヤー 1" xmlns="http://www.w3.org/2000/svg" viewBox="0 0 350 350"><defs><style>.cls-1{fill:#339;}.cls-2{fill:#96f;}</style></defs><title>アートボード 20</title><path class="cls-1" d="M175,335.56c-88.53,0-160.56-72-160.56-160.56S86.47,14.44,175,14.44,335.56,86.47,335.56,175,263.53,335.56,175,335.56Z"/><path class="cls-2" d="M175,24.44a150.56,150.56,0,0,1,106.46,257A150.56,150.56,0,0,1,68.54,68.54,149.58,149.58,0,0,1,175,24.44m0-20A170.56,170.56,0,1,0,345.56,175,170.56,170.56,0,0,0,175,4.44Z"/><path class="cls-2" d="M182,223.28a9.73,9.73,0,0,1,.66,2.77,1.92,1.92,0,0,1-.59,1.6,3.78,3.78,0,0,1-2.07.7,38,38,0,0,1-3.87.16q-2.42,0-3.87-.12a8.75,8.75,0,0,1-2.19-.39,2.32,2.32,0,0,1-1.09-.74,6,6,0,0,1-.66-1.17l-8.67-24.61h-42l-8.28,24.3a4.09,4.09,0,0,1-.62,1.21,3,3,0,0,1-1.13.86,7,7,0,0,1-2.11.51,32.73,32.73,0,0,1-3.55.16,28.89,28.89,0,0,1-3.71-.2,3.72,3.72,0,0,1-2-.74,2,2,0,0,1-.55-1.6,9.6,9.6,0,0,1,.66-2.77l33.91-93.91a4.06,4.06,0,0,1,.82-1.41,3.4,3.4,0,0,1,1.48-.86,11.28,11.28,0,0,1,2.5-.43q1.52-.12,3.87-.12,2.5,0,4.14.12a12.35,12.35,0,0,1,2.66.43,3.51,3.51,0,0,1,1.56.9,4.22,4.22,0,0,1,.86,1.45Zm-43.52-82.89h-.08L121,190.78h35.16Z"/><path class="cls-2" d="M249.44,187.89q0,3-1.53,4.34a5.27,5.27,0,0,1-3.49,1.29h-46.3a43.36,43.36,0,0,0,1.18,10.55,20.33,20.33,0,0,0,3.93,8,17.64,17.64,0,0,0,7.14,5.16,28.45,28.45,0,0,0,10.76,1.8,44,44,0,0,0,8.95-.82,52.87,52.87,0,0,0,6.79-1.84q2.87-1,4.71-1.84a7.72,7.72,0,0,1,2.79-.82,1.79,1.79,0,0,1,1,.27,1.77,1.77,0,0,1,.67.82,5.74,5.74,0,0,1,.35,1.52,20.47,20.47,0,0,1,.12,2.38,17.43,17.43,0,0,1-.08,1.76c-.05.5-.12.94-.2,1.33a3.42,3.42,0,0,1-.39,1.05,4.5,4.5,0,0,1-.7.9,11.45,11.45,0,0,1-2.54,1.41,36.9,36.9,0,0,1-5.47,1.91,76.67,76.67,0,0,1-7.77,1.68,56.87,56.87,0,0,1-9.41.74,43.6,43.6,0,0,1-15.2-2.42,28.16,28.16,0,0,1-11-7.19A30.71,30.71,0,0,1,187,208a55.67,55.67,0,0,1-2.27-16.72A52.68,52.68,0,0,1,187.09,175a34.5,34.5,0,0,1,6.76-12.27A29.51,29.51,0,0,1,204.52,155a35,35,0,0,1,14-2.7,33.84,33.84,0,0,1,14.1,2.66,26.68,26.68,0,0,1,9.57,7.15,28.76,28.76,0,0,1,5.51,10.55,46.18,46.18,0,0,1,1.76,12.93Zm-13-3.83q.23-10.15-4.52-15.94t-14.11-5.78a18.68,18.68,0,0,0-8.41,1.8,18.21,18.21,0,0,0-6.05,4.77,21.85,21.85,0,0,0-3.77,6.91,28.82,28.82,0,0,0-1.49,8.24Z"/></svg>