<svg id="レイヤー_1" data-name="レイヤー 1" xmlns="http://www.w3.org/2000/svg" viewBox="0 0 350 350"><defs><style>.cls-1{fill:#630;}.cls-2{fill:#ffa42c;}</style></defs><title>アートボード 18</title><path class="cls-1" d="M175,335.56c-88.53,0-160.56-72-160.56-160.56S86.47,14.44,175,14.44,335.56,86.47,335.56,175,263.53,335.56,175,335.56Z"/><path class="cls-2" d="M175,24.44a150.56,150.56,0,0,1,106.46,257A150.56,150.56,0,0,1,68.54,68.54,149.58,149.58,0,0,1,175,24.44m0-20A170.56,170.56,0,1,0,345.56,175,170.56,170.56,0,0,0,175,4.44Z"/><path class="cls-2" d="M203.49,214.78a9.73,9.73,0,0,1,.66,2.77,1.92,1.92,0,0,1-.59,1.6,3.78,3.78,0,0,1-2.07.7,38,38,0,0,1-3.87.16q-2.42,0-3.87-.12a8.75,8.75,0,0,1-2.19-.39,2.32,2.32,0,0,1-1.09-.74,6,6,0,0,1-.66-1.17L181.15,193h-42l-8.28,24.3a4.09,4.09,0,0,1-.62,1.21,3,3,0,0,1-1.13.86,7,7,0,0,1-2.11.51,32.73,32.73,0,0,1-3.55.16,28.89,28.89,0,0,1-3.71-.2,3.72,3.72,0,0,1-2-.74,2,2,0,0,1-.55-1.6,9.6,9.6,0,0,1,.66-2.77l33.91-93.91a4.06,4.06,0,0,1,.82-1.41,3.4,3.4,0,0,1,1.48-.86,11.28,11.28,0,0,1,2.5-.43q1.52-.12,3.87-.12,2.5,0,4.14.12a12.35,12.35,0,0,1,2.66.43,3.51,3.51,0,0,1,1.56.9,4.22,4.22,0,0,1,.86,1.45ZM160,131.89h-.08l-17.42,50.39h35.16Z"/><path class="cls-2" d="M225.26,123.53q0,4.53-1.72,6.17t-6.33,1.64q-4.53,0-6.21-1.6t-1.68-6.05q0-4.53,1.72-6.17t6.33-1.64q4.53,0,6.21,1.6T225.26,123.53Zm-1.48,94.06a1.75,1.75,0,0,1-.31,1.05,2.44,2.44,0,0,1-1,.74,7.25,7.25,0,0,1-2,.47,26.89,26.89,0,0,1-3.2.16,26,26,0,0,1-3.12-.16,7.84,7.84,0,0,1-2-.47,2.12,2.12,0,0,1-1-.74,1.91,1.91,0,0,1-.27-1.05V147.28a2,2,0,0,1,.27-1,2,2,0,0,1,1-.78,7.84,7.84,0,0,1,2-.47,26,26,0,0,1,3.13-.16,26.89,26.89,0,0,1,3.2.16,7.25,7.25,0,0,1,2,.47,2.31,2.31,0,0,1,1,.78,1.81,1.81,0,0,1,.31,1Z"/></svg>