<svg id="レイヤー_1" data-name="レイヤー 1" xmlns="http://www.w3.org/2000/svg" viewBox="0 0 350 350"><defs><style>.cls-1{fill:#fff;}.cls-2{fill:#414141;}</style></defs><title>アートボード 1</title><circle class="cls-1" cx="175" cy="181.77" r="136.76"/><path id="Unity" class="cls-2" d="M4.44,175A170.56,170.56,0,1,1,175,345.56,170.56,170.56,0,0,1,4.44,175ZM149.5,90.57,137.16,114H108.9L44,178.73l64.92,65.05,27.42.47,13.13,23.54,89.74,23.54,23-88.86-12.95-22.83L263,155.74,237.12,68.53ZM138.37,117,88,168.81l79.56.59,42-72.38ZM167.63,190l-80-.52L138.87,242l69,18.21Zm58.94-80.28L186,179.93l40.49,69.25,20-70.45Z"/></svg>