<svg id="レイヤー_1" data-name="レイヤー 1" xmlns="http://www.w3.org/2000/svg" viewBox="0 0 350 350"><defs><style>.cls-1{fill:#fff;}.cls-2{fill:#f96441;}</style></defs><title>アートボード 14</title><circle class="cls-1" cx="173.74" cy="183.27" r="136.76"/><path id="swift" class="cls-2" d="M4.44,175A170.56,170.56,0,1,1,175,345.56,170.56,170.56,0,0,1,4.44,175Zm54.4,22.88S91.95,256,158.74,265.41c57.08,8,59.15-16,90.32-16.5,18.51-.32,27.74,19.37,27.74,19.37S287.54,245.69,261,209.7c0,0,11.46-32.91-7-72-22.28-47.25-60.2-67.19-60.2-67.19s28.91,36.77,26.81,76.21c-1.29,24.23-6.29,29.52-6.29,29.52-55.43-33.57-108.41-87.72-108.41-87.72s48,66.89,63.1,79.26c0,0-35.68-24.16-46.16-32s-43-35.48-43-35.48,49.8,71.8,104,112.42c0,0-20.37,13.75-51.74,12C88.17,222.28,58.84,197.88,58.84,197.88Z"/></svg>