<svg id="レイヤー_1" data-name="レイヤー 1" xmlns="http://www.w3.org/2000/svg" viewBox="0 0 350 350"><defs><style>.cls-1{fill:#35758e;}.cls-2{fill:#7accf9;}</style></defs><title>アートボード 17</title><path class="cls-1" d="M175,335.56c-88.53,0-160.56-72-160.56-160.56S86.47,14.44,175,14.44,335.56,86.47,335.56,175,263.53,335.56,175,335.56Z"/><path class="cls-2" d="M175,24.44a150.56,150.56,0,0,1,106.46,257A150.56,150.56,0,0,1,68.54,68.54,149.58,149.58,0,0,1,175,24.44m0-20A170.56,170.56,0,1,0,345.56,175,170.56,170.56,0,0,0,175,4.44Z"/><path class="cls-2" d="M181.93,148.06a35.73,35.73,0,0,1-2.5,13.67,28.89,28.89,0,0,1-7.15,10.39,32,32,0,0,1-11.41,6.64,49.4,49.4,0,0,1-16.13,2.34H133.26v36.41a1.77,1.77,0,0,1-.35,1.09,2.33,2.33,0,0,1-1.09.74,10.75,10.75,0,0,1-2,.47,27,27,0,0,1-6.48,0,11.75,11.75,0,0,1-2.07-.47,2.08,2.08,0,0,1-1.09-.74,1.92,1.92,0,0,1-.31-1.09V124.23q0-3.12,1.64-4.45a5.69,5.69,0,0,1,3.67-1.33h21.64q3.28,0,6.29.27a59.38,59.38,0,0,1,7.11,1.17,29.32,29.32,0,0,1,8.36,3.36,26.46,26.46,0,0,1,7.23,6.05,26.09,26.09,0,0,1,4.57,8.32A32.38,32.38,0,0,1,181.93,148.06Zm-14.14,1.09a21,21,0,0,0-2.3-10.31,16.06,16.06,0,0,0-5.7-6.17,19.22,19.22,0,0,0-7-2.58,47.66,47.66,0,0,0-7.07-.55H133.26v40.55h12.11a28.16,28.16,0,0,0,10.12-1.56,19,19,0,0,0,6.76-4.34,18.16,18.16,0,0,0,4.14-6.64A24.39,24.39,0,0,0,167.79,149.15Z"/><path class="cls-2" d="M237.13,198.45a22.25,22.25,0,0,1-2,9.61,19.56,19.56,0,0,1-5.66,7.11,25.56,25.56,0,0,1-8.75,4.38A39.77,39.77,0,0,1,209.55,221,42.82,42.82,0,0,1,196.31,219a31.39,31.39,0,0,1-4.57-1.87,13.4,13.4,0,0,1-2.73-1.76,4.48,4.48,0,0,1-1.25-2.19,14.82,14.82,0,0,1-.39-3.83,16.67,16.67,0,0,1,.16-2.5,8.47,8.47,0,0,1,.39-1.64,1.75,1.75,0,0,1,.66-.9,1.78,1.78,0,0,1,1-.27,5.57,5.57,0,0,1,2.54,1.05q1.68,1.05,4.14,2.3a38.07,38.07,0,0,0,5.82,2.3,25.83,25.83,0,0,0,7.73,1.05,23.21,23.21,0,0,0,5.94-.7,14.38,14.38,0,0,0,4.61-2.07,9.22,9.22,0,0,0,3-3.48,11.06,11.06,0,0,0,1.05-5,8.1,8.1,0,0,0-1.52-5,14.69,14.69,0,0,0-4-3.59,33.52,33.52,0,0,0-5.62-2.77q-3.13-1.21-6.45-2.54a65.87,65.87,0,0,1-6.48-3,24.75,24.75,0,0,1-5.66-4.1,18.67,18.67,0,0,1-4-5.78,19.37,19.37,0,0,1-1.52-8,20.16,20.16,0,0,1,1.6-7.93,18.4,18.4,0,0,1,4.8-6.64,24.1,24.1,0,0,1,8-4.57,33.29,33.29,0,0,1,11.21-1.72,34.16,34.16,0,0,1,5.63.47,38.66,38.66,0,0,1,5.08,1.17,24.49,24.49,0,0,1,3.87,1.52,16.94,16.94,0,0,1,2.42,1.45,4.3,4.3,0,0,1,1.09,1.09,3.42,3.42,0,0,1,.39,1.05q.12.59.23,1.45a16,16,0,0,1,.12,2.11,19.62,19.62,0,0,1-.12,2.3A5.77,5.77,0,0,1,233,158a2.08,2.08,0,0,1-.66.9,1.46,1.46,0,0,1-.86.27,4.31,4.31,0,0,1-2-.86,28.84,28.84,0,0,0-3.44-1.84,38.29,38.29,0,0,0-5-1.84,22.66,22.66,0,0,0-6.52-.86,20.38,20.38,0,0,0-5.78.74,11.11,11.11,0,0,0-4.1,2.11,8.92,8.92,0,0,0-2.42,3.24,10,10,0,0,0-.82,4.06A8.24,8.24,0,0,0,203,169a14.86,14.86,0,0,0,4.06,3.63,33.94,33.94,0,0,0,5.7,2.81l6.52,2.58q3.32,1.33,6.56,3a24.58,24.58,0,0,1,5.74,4,18,18,0,0,1,4,5.63A18.42,18.42,0,0,1,237.13,198.45Z"/></svg>