<svg id="レイヤー_1" data-name="レイヤー 1" xmlns="http://www.w3.org/2000/svg" viewBox="0 0 350 350"><defs><style>.cls-1{fill:#630;}.cls-2,.cls-3{fill:#ffa42c;}.cls-3{font-size:160px;font-family:Calibri, Calibri;letter-spacing:-0.05em;}</style></defs><title>アートボード 18</title><path class="cls-1" d="M175,335.56c-88.53,0-160.56-72-160.56-160.56S86.47,14.44,175,14.44,335.56,86.47,335.56,175,263.53,335.56,175,335.56Z"/><path class="cls-2" d="M175,24.44a150.56,150.56,0,0,1,106.46,257A150.56,150.56,0,0,1,68.54,68.54,149.58,149.58,0,0,1,175,24.44m0-20A170.56,170.56,0,1,0,345.56,175,170.56,170.56,0,0,0,175,4.44Z"/><text class="cls-3" transform="translate(114.35 219.54)">Ai</text></svg>