<svg id="レイヤー_1" data-name="レイヤー 1" xmlns="http://www.w3.org/2000/svg" viewBox="0 0 350 350"><defs><style>.cls-1{fill:#fff;}.cls-2{fill:#00a6ad;}</style></defs><title>アートボード 11</title><circle class="cls-1" cx="178.46" cy="178.26" r="136.76"/><g id="Arduino_グループ_" data-name="Arduino&lt;グループ&gt;"><circle class="cls-2" cx="175" cy="175" r="170.56"/><rect class="cls-1" x="95.5" y="169.11" width="36.6" height="12.67"/><rect class="cls-1" x="217.26" y="169.11" width="36.6" height="12.67"/><rect class="cls-1" x="229.58" y="156.79" width="11.97" height="36.95"/><path class="cls-1" d="M237.78,115.59c38.48,0,60.7,30.48,60.7,59.85,0,26.63-20.89,59.49-60.19,59.49-41,0-63.29-37.85-63.29-37.85s-22.83,37.85-61.88,37.85c-31.73,0-61.88-24.69-61.87-59.93,0-31.12,26.43-59.41,62.55-59.41S175,153.1,175,153.1,199.11,115.59,237.78,115.59ZM163.32,175s-18.19-38.29-50.4-38.29c-21.9,0-40.53,18.69-40.53,38.73,0,16.71,14.26,38.3,40.47,38.3C145.21,213.74,163.32,175,163.32,175Zm73.79,38.51c26.21,0,40.47-21.58,40.47-38.3,0-20-18.63-38.73-40.53-38.73-32.2,0-50.4,38.29-50.4,38.29S204.76,213.51,237.12,213.51Z"/></g></svg>