<svg id="レイヤー_1" data-name="レイヤー 1" xmlns="http://www.w3.org/2000/svg" viewBox="0 0 350 350"><defs><style>.cls-1{fill:#636;}.cls-2{fill:#c6c;}</style></defs><title>アートボード 19</title><path class="cls-1" d="M175,335.56c-88.53,0-160.56-72-160.56-160.56S86.47,14.44,175,14.44,335.56,86.47,335.56,175,263.53,335.56,175,335.56Z"/><path class="cls-2" d="M175,24.44a150.56,150.56,0,0,1,106.46,257A150.56,150.56,0,1,1,68.54,68.54,149.58,149.58,0,0,1,175,24.44m0-20A170.56,170.56,0,1,0,345.56,175,170.56,170.56,0,0,0,175,4.44Z"/><path class="cls-2" d="M185.33,148.06a35.73,35.73,0,0,1-2.5,13.67,28.89,28.89,0,0,1-7.15,10.39,32,32,0,0,1-11.41,6.64,49.4,49.4,0,0,1-16.13,2.34H136.66v36.41a1.77,1.77,0,0,1-.35,1.09,2.33,2.33,0,0,1-1.09.74,10.75,10.75,0,0,1-2,.47,27,27,0,0,1-6.48,0,11.75,11.75,0,0,1-2.07-.47,2.08,2.08,0,0,1-1.09-.74,1.92,1.92,0,0,1-.31-1.09V124.23q0-3.12,1.64-4.45a5.69,5.69,0,0,1,3.67-1.33h21.64q3.28,0,6.29.27a59.38,59.38,0,0,1,7.11,1.17,29.32,29.32,0,0,1,8.36,3.36,26.46,26.46,0,0,1,7.23,6.05,26.09,26.09,0,0,1,4.57,8.32A32.38,32.38,0,0,1,185.33,148.06Zm-14.14,1.09a21,21,0,0,0-2.3-10.31,16.06,16.06,0,0,0-5.7-6.17,19.22,19.22,0,0,0-7-2.58,47.66,47.66,0,0,0-7.07-.55H136.66v40.55h12.11a28.16,28.16,0,0,0,10.12-1.56,19,19,0,0,0,6.76-4.34,18.16,18.16,0,0,0,4.14-6.64A24.39,24.39,0,0,0,171.19,149.15Z"/><path class="cls-2" d="M237.48,151.89q0,1.72-.08,2.89a7.18,7.18,0,0,1-.31,1.84,2.67,2.67,0,0,1-.59,1,1.32,1.32,0,0,1-1,.35,4.32,4.32,0,0,1-1.52-.35q-.9-.35-2-.7t-2.54-.66a14.12,14.12,0,0,0-3-.31,9.89,9.89,0,0,0-3.83.78,15,15,0,0,0-3.95,2.58,32.14,32.14,0,0,0-4.34,4.77q-2.27,3-5,7.27v46.25a1.75,1.75,0,0,1-.31,1.05,2.44,2.44,0,0,1-1,.74,7.25,7.25,0,0,1-2,.47,26.89,26.89,0,0,1-3.2.16,26,26,0,0,1-3.12-.16,7.84,7.84,0,0,1-2-.47,2.12,2.12,0,0,1-1-.74,1.91,1.91,0,0,1-.27-1.05V147.28a2.18,2.18,0,0,1,.23-1.05,2.09,2.09,0,0,1,.94-.78,5.29,5.29,0,0,1,1.8-.47,28.32,28.32,0,0,1,2.89-.12q1.72,0,2.85.12a4.63,4.63,0,0,1,1.76.47,2.49,2.49,0,0,1,.9.78,1.93,1.93,0,0,1,.27,1.05v10.23a55,55,0,0,1,5.43-6.87,29.9,29.9,0,0,1,4.8-4.18,14.87,14.87,0,0,1,4.49-2.11,17.57,17.57,0,0,1,4.49-.59q1,0,2.3.12a21.6,21.6,0,0,1,2.7.43,23.72,23.72,0,0,1,2.54.7,5.4,5.4,0,0,1,1.6.78,2.23,2.23,0,0,1,.63.74,4.73,4.73,0,0,1,.27.9,10.12,10.12,0,0,1,.16,1.6Q237.48,150.09,237.48,151.89Z"/></svg>