<?xml version="1.0" encoding="UTF-8"?>
<svg width="200px" height="200px" viewBox="0 0 200 200" version="1.1" xmlns="http://www.w3.org/2000/svg" xmlns:xlink="http://www.w3.org/1999/xlink">
    <!-- Generator: Sketch 44 (41411) - http://www.bohemiancoding.com/sketch -->
    <title>app</title>
    <desc>Created with Sketch.</desc>
    <defs>
        <rect id="path-1" x="0" y="0" width="890" height="1024"></rect>
    </defs>
    <g id="Welcome" stroke="none" stroke-width="1" fill="none" fill-rule="evenodd">
        <g id="works(ホバーしたらランダムで画像表示しよう)" transform="translate(-70.000000, -550.000000)">
            <g id="Rectangle">
                <use fill-opacity="0.5" fill="#FFFFFF" fill-rule="evenodd" xlink:href="#path-1"></use>
                <rect stroke="#979797" stroke-width="1" x="0.5" y="0.5" width="889" height="1023"></rect>
            </g>
            <g id="app" transform="translate(70.000000, 539.000000)">
                <text id="About" font-family="Helvetica" font-size="24" font-weight="normal" letter-spacing="1.44000006" fill="#232323">
                    <tspan x="24" y="182">App</tspan>
                </text>
                <g transform="translate(53.000000, 0.000000)" id="Combined-Shape" fill-rule="nonzero" fill="#231815">
                    <path d="M23.7193382,35.4601227 L66.2806618,35.4601227 L66.2806618,35.4601227 C68.9769871,35.4601227 71.1627907,37.6459263 71.1627907,40.3422516 L71.1627907,130.179221 L71.1627907,130.179221 C71.1627907,132.875546 68.9769871,135.06135 66.2806618,135.06135 L23.7193382,135.06135 L23.7193382,135.06135 C21.0230129,135.06135 18.8372093,132.875546 18.8372093,130.179221 L18.8372093,40.3422516 L18.8372093,40.3422516 C18.8372093,37.6459263 21.0230129,35.4601227 23.7193382,35.4601227 L23.7193382,35.4601227 Z M45,42.8967941 C45.9418684,42.8967941 46.7054037,42.1339237 46.7054037,41.1928755 C46.7054037,40.2518273 45.9418684,39.488957 45,39.488957 C44.0581316,39.488957 43.2945963,40.2518273 43.2945963,41.1928755 C43.2945963,42.1339237 44.0581316,42.8967941 45,42.8967941 Z M26.937392,46.6809004 L26.937392,46.6809004 C25.2521887,46.6809004 23.8860615,48.0470276 23.8860615,49.7322309 L23.8860615,117.393641 C23.8860615,119.078844 25.2521887,120.444971 26.937392,120.444971 L63.062608,120.444971 C64.7478113,120.444971 66.1139385,119.078844 66.1139385,117.393641 L66.1139385,49.7322309 C66.1139385,48.0470276 64.7478113,46.6809004 63.062608,46.6809004 L26.937392,46.6809004 Z M45,131.66269 C47.1238542,131.66269 48.8455781,129.942465 48.8455781,127.820461 C48.8455781,125.698456 47.1238542,123.978231 45,123.978231 C42.8761458,123.978231 41.1544219,125.698456 41.1544219,127.820461 C41.1544219,129.942465 42.8761458,131.66269 45,131.66269 Z"></path>
                </g>
            </g>
        </g>
    </g>
</svg>