<?xml version="1.0" encoding="UTF-8"?>
<svg width="200px" height="200px" viewBox="0 0 200 200" version="1.1" xmlns="http://www.w3.org/2000/svg" xmlns:xlink="http://www.w3.org/1999/xlink">
    <!-- Generator: Sketch 44.1 (41455) - http://www.bohemiancoding.com/sketch -->
    <title>app</title>
    <desc>Created with Sketch.</desc>
    <defs></defs>
    <g id="Welcome" stroke="none" stroke-width="1" fill="none" fill-rule="evenodd">
        <g id="Desktop-HD" transform="translate(-345.000000, -2429.000000)">
            <g id="Group-5" transform="translate(0.000000, 1912.000000)" fill="#C4D797">
                <rect id="Rectangle" x="0" y="0" width="1440" height="800"></rect>
            </g>
            <g id="Group-7" transform="translate(345.000000, 2154.000000)">
                <g id="app" transform="translate(0.000000, 275.000000)">
                    <rect id="Rectangle-2" fill="#FFFFFF" x="0" y="0" width="200" height="200"></rect>
                    <text id="About" font-family="Helvetica" font-size="24" font-weight="normal" letter-spacing="1.44000006" fill="#414F20">
                        <tspan x="31.5749216" y="173">Application</tspan>
                    </text>
                    <g transform="translate(71.000000, 24.000000)" id="Combined-Shape" fill-rule="nonzero" fill="#414F20">
                        <path d="M5.7193382,0.460122699 L48.2806618,0.460122699 L48.2806618,0.460122699 C50.9769871,0.460122699 53.1627907,2.64592626 53.1627907,5.34225159 L53.1627907,95.1792208 L53.1627907,95.1792208 C53.1627907,97.8755461 50.9769871,100.06135 48.2806618,100.06135 L5.7193382,100.06135 L5.7193382,100.06135 C3.02301286,100.06135 0.837209302,97.8755461 0.837209302,95.1792208 L0.837209302,5.34225159 L0.837209302,5.34225159 C0.837209302,2.64592626 3.02301286,0.460122699 5.7193382,0.460122699 L5.7193382,0.460122699 Z M27,7.89679406 C27.9418684,7.89679406 28.7054037,7.13392375 28.7054037,6.19287553 C28.7054037,5.25182731 27.9418684,4.488957 27,4.488957 C26.0581316,4.488957 25.2945963,5.25182731 25.2945963,6.19287553 C25.2945963,7.13392375 26.0581316,7.89679406 27,7.89679406 Z M8.93739204,11.6809004 L8.93739204,11.6809004 C7.25218871,11.6809004 5.88606148,13.0470276 5.88606148,14.7322309 L5.88606148,82.3936408 C5.88606148,84.0788441 7.25218871,85.4449713 8.93739204,85.4449713 L45.062608,85.4449713 C46.7478113,85.4449713 48.1139385,84.0788441 48.1139385,82.3936408 L48.1139385,14.7322309 C48.1139385,13.0470276 46.7478113,11.6809004 45.062608,11.6809004 L8.93739204,11.6809004 Z M27,96.6626899 C29.1238542,96.6626899 30.8455781,94.9424653 30.8455781,92.8204607 C30.8455781,90.6984561 29.1238542,88.9782315 27,88.9782315 C24.8761458,88.9782315 23.1544219,90.6984561 23.1544219,92.8204607 C23.1544219,94.9424653 24.8761458,96.6626899 27,96.6626899 Z"></path>
                    </g>
                </g>
            </g>
        </g>
    </g>
</svg>