<?xml version="1.0" encoding="UTF-8"?>
<svg width="200px" height="200px" viewBox="0 0 200 200" version="1.1" xmlns="http://www.w3.org/2000/svg" xmlns:xlink="http://www.w3.org/1999/xlink">
    <!-- Generator: Sketch 44 (41411) - http://www.bohemiancoding.com/sketch -->
    <title>graphics</title>
    <desc>Created with Sketch.</desc>
    <defs>
        <rect id="path-1" x="0" y="0" width="890" height="1024"></rect>
    </defs>
    <g id="Welcome" stroke="none" stroke-width="1" fill="none" fill-rule="evenodd">
        <g id="works(ホバーしたらランダムで画像表示しよう)" transform="translate(-345.000000, -550.000000)">
            <g id="Rectangle">
                <use fill-opacity="0.5" fill="#FFFFFF" fill-rule="evenodd" xlink:href="#path-1"></use>
                <rect stroke="#979797" stroke-width="1" x="0.5" y="0.5" width="889" height="1023"></rect>
            </g>
            <g id="graphics" transform="translate(345.000000, 550.000000)">
                <rect id="Rectangle-2" stroke="#979797" x="0.5" y="0.5" width="199" height="199"></rect>
                <text id="Graphic" font-family="Helvetica" font-size="24" font-weight="normal" letter-spacing="1.44000006" fill="#232323">
                    <tspan x="26" y="171">Graphic</tspan>
                </text>
                <g transform="translate(61.000000, 37.000000)" fill-rule="nonzero" id="Shape">
                    <path d="M77.9462069,13.0796813 L77.9462069,64.6723506 C77.9462069,65.8517316 76.9828472,66.8078088 75.7944828,66.8078088 L2.20551724,66.8078088 C1.01715281,66.8078088 0.0537931034,65.8517316 0.0537931034,64.6723506 L0.0537931034,2.17015936 C0.0537931034,0.990778383 1.01715281,0.0347011952 2.20551724,0.0347011952 L61.3429655,0.0347011952 L77.9462069,13.0796813 Z" stroke="#231815" stroke-width="3.22758621" stroke-linejoin="round"></path>
                    <path d="M77.9462069,13.6135458 L63.8793103,13.6135458 C62.4803646,13.6091499 61.3473949,12.4847449 61.3429655,11.0963745 L61.3429655,0.568565737 L77.9462069,13.6135458 Z" stroke="#231815" stroke-width="2.42068966" stroke-linejoin="round"></path>
                    <path d="M38.6745517,47.41251 C38.6745517,47.41251 28.6609655,47.487251 22.2434483,40.1492829 C16.0975862,33.1209562 17.3133103,22.9828685 17.3133103,22.9828685 M31.7295095,27.9904212 C25.4195903,22.8561825 17.3052414,22.9828685 17.3052414,22.9828685" stroke="#231815" stroke-width="2.42068966" stroke-linecap="round" stroke-linejoin="round"></path>
                    <path d="M37.9671724,47.2203187 L37.9671724,59.539243 C37.9671724,60.2026448 38.5090623,60.7404382 39.1775172,60.7404382 C39.8459722,60.7404382 40.3878621,60.2026448 40.3878621,59.539243 L40.3878621,47.2203187 C40.3878621,46.5569169 39.8459722,46.0191235 39.1775172,46.0191235 C38.5090623,46.0191235 37.9671724,46.5569169 37.9671724,47.2203187 Z" fill="#231815"></path>
                    <path d="M60.6866897,22.9828685 C60.6866897,22.9828685 61.9024138,33.1262948 55.7565517,40.1492829 C49.3390345,47.487251 39.3254483,47.41251 39.3254483,47.41251 M60.6866897,22.9828685 C60.6866897,22.9828685 52.9731215,22.8603362 46.7341122,27.6198231" stroke="#231815" stroke-width="2.42068966" stroke-linecap="round" stroke-linejoin="round"></path>
                    <path d="M39.0591724,47.2203187 C39.0591724,47.2203187 31.4474483,40.7658964 31.4474483,31.0468924 C31.4474483,21.7416335 39.0591724,14.8734661 39.0591724,14.8734661 M39.0591724,47.2176494 C39.0591724,47.2176494 46.9075862,40.440239 46.9075862,31.1349801 C46.9075862,21.4186454 39.0591724,14.8734661 39.0591724,14.8734661" stroke="#231815" stroke-width="2.42068966" stroke-linecap="round" stroke-linejoin="round"></path>
                </g>
            </g>
        </g>
    </g>
</svg>