<?xml version="1.0" encoding="UTF-8"?>
<svg width="200px" height="200px" viewBox="0 0 200 200" version="1.1" xmlns="http://www.w3.org/2000/svg" xmlns:xlink="http://www.w3.org/1999/xlink">
    <!-- Generator: Sketch 44.1 (41455) - http://www.bohemiancoding.com/sketch -->
    <title>hardware</title>
    <desc>Created with Sketch.</desc>
    <defs></defs>
    <g id="Welcome" stroke="none" stroke-width="1" fill="none" fill-rule="evenodd">
        <g id="Desktop-HD" transform="translate(-895.000000, -2429.000000)">
            <g id="Group-5" transform="translate(0.000000, 1912.000000)" fill="#C4D797">
                <rect id="Rectangle" x="0" y="0" width="1440" height="800"></rect>
            </g>
            <g id="Group-7" transform="translate(345.000000, 2154.000000)">
                <g id="hardware" transform="translate(550.000000, 275.000000)">
                    <rect id="Rectangle-2" fill="#FFFFFF" x="0" y="0" width="200" height="200"></rect>
                    <text id="Hardware" font-family="Helvetica" font-size="24" font-weight="normal" letter-spacing="1.44000006" fill="#414F20">
                        <tspan x="42.2204685" y="171">Hardware</tspan>
                    </text>
                    <g id="hardware-copy" transform="translate(56.000000, 32.000000)">
                        <rect id="Rectangle-path" stroke="#414F20" stroke-width="2.96551724" x="13.6473103" y="12.7242254" width="58.7053793" height="58.5515493" rx="7.71034483"></rect>
                        <rect id="Rectangle-path" fill="#414F20" fill-rule="nonzero" x="25.1268276" y="24.173662" width="35.7493103" height="35.6556338" rx="2.37241379"></rect>
                        <path d="M23.644069,0.133098592 L23.644069,5.38014085 C23.644069,6.19689998 24.3079226,6.85901408 25.1268276,6.85901408 C25.9457326,6.85901408 26.6095862,6.19689998 26.6095862,5.38014085 L26.6095862,0.133098592 C26.6095862,-0.683660546 25.9457326,-1.34577465 25.1268276,-1.34577465 C24.3079226,-1.34577465 23.644069,-0.683660546 23.644069,0.133098592 Z" id="Shape" fill="#414F20" fill-rule="nonzero"></path>
                        <path d="M41.5172414,0.133098592 L41.5172414,5.38014085 C41.5172414,6.19689998 42.181095,6.85901408 43,6.85901408 C43.818905,6.85901408 44.4827586,6.19689998 44.4827586,5.38014085 L44.4827586,0.133098592 C44.4827586,-0.683660546 43.818905,-1.34577465 43,-1.34577465 C42.181095,-1.34577465 41.5172414,-0.683660546 41.5172414,0.133098592 Z" id="Shape" fill="#414F20" fill-rule="nonzero"></path>
                        <path d="M59.3904138,0.133098592 L59.3904138,5.38014085 C59.3904138,6.19689998 60.0542674,6.85901408 60.8731724,6.85901408 C61.6920774,6.85901408 62.355931,6.19689998 62.355931,5.38014085 L62.355931,0.133098592 C62.355931,-0.683660546 61.6920774,-1.34577465 60.8731724,-1.34577465 C60.0542674,-1.34577465 59.3904138,-0.683660546 59.3904138,0.133098592 Z" id="Shape" fill="#414F20" fill-rule="nonzero"></path>
                        <path d="M80.6027586,61.3052113 L85.8635862,61.3052113 C86.6824912,61.3052113 87.3463448,60.6430972 87.3463448,59.826338 C87.3463448,59.0095789 86.6824912,58.3474648 85.8635862,58.3474648 L80.6027586,58.3474648 C79.7838536,58.3474648 79.12,59.0095789 79.12,59.826338 C79.12,60.6430972 79.7838536,61.3052113 80.6027586,61.3052113 Z" id="Shape" fill="#414F20" fill-rule="nonzero"></path>
                        <path d="M80.6027586,43.4788732 L85.8635862,43.4788732 C86.6824912,43.4788732 87.3463448,42.8167591 87.3463448,42 C87.3463448,41.1832409 86.6824912,40.5211268 85.8635862,40.5211268 L80.6027586,40.5211268 C79.7838536,40.5211268 79.12,41.1832409 79.12,42 C79.12,42.8167591 79.7838536,43.4788732 80.6027586,43.4788732 Z" id="Shape" fill="#414F20" fill-rule="nonzero"></path>
                        <path d="M80.6027586,25.6525352 L85.8635862,25.6525352 C86.6824912,25.6525352 87.3463448,24.9904211 87.3463448,24.173662 C87.3463448,23.3569028 86.6824912,22.6947887 85.8635862,22.6947887 L80.6027586,22.6947887 C79.7838536,22.6947887 79.12,23.3569028 79.12,24.173662 C79.12,24.9904211 79.7838536,25.6525352 80.6027586,25.6525352 Z" id="Shape" fill="#414F20" fill-rule="nonzero"></path>
                        <path d="M62.355931,83.8669014 L62.355931,78.6198592 C62.355931,77.8031 61.6920774,77.1409859 60.8731724,77.1409859 C60.0542674,77.1409859 59.3904138,77.8031 59.3904138,78.6198592 L59.3904138,83.8669014 C59.3904138,84.6836605 60.0542674,85.3457746 60.8731724,85.3457746 C61.6920774,85.3457746 62.355931,84.6836605 62.355931,83.8669014 Z" id="Shape" fill="#414F20" fill-rule="nonzero"></path>
                        <path d="M44.4827586,83.8669014 L44.4827586,78.6198592 C44.4827586,77.8031 43.818905,77.1409859 43,77.1409859 C42.181095,77.1409859 41.5172414,77.8031 41.5172414,78.6198592 L41.5172414,83.8669014 C41.5172414,84.6836605 42.181095,85.3457746 43,85.3457746 C43.818905,85.3457746 44.4827586,84.6836605 44.4827586,83.8669014 Z" id="Shape" fill="#414F20" fill-rule="nonzero"></path>
                        <path d="M26.6095862,83.8669014 L26.6095862,78.6198592 C26.6095862,77.8031 25.9457326,77.1409859 25.1268276,77.1409859 C24.3079226,77.1409859 23.644069,77.8031 23.644069,78.6198592 L23.644069,83.8669014 C23.644069,84.6836605 24.3079226,85.3457746 25.1268276,85.3457746 C25.9457326,85.3457746 26.6095862,84.6836605 26.6095862,83.8669014 Z" id="Shape" fill="#414F20" fill-rule="nonzero"></path>
                        <path d="M5.39724138,22.6947887 L0.136413793,22.6947887 C-0.682491181,22.6947887 -1.34634483,23.3569028 -1.34634483,24.173662 C-1.34634483,24.9904211 -0.682491181,25.6525352 0.136413793,25.6525352 L5.39724138,25.6525352 C6.21614635,25.6525352 6.88,24.9904211 6.88,24.173662 C6.88,23.3569028 6.21614635,22.6947887 5.39724138,22.6947887 Z" id="Shape" fill="#414F20" fill-rule="nonzero"></path>
                        <path d="M5.39724138,40.5211268 L0.136413793,40.5211268 C-0.682491181,40.5211268 -1.34634483,41.1832409 -1.34634483,42 C-1.34634483,42.8167591 -0.682491181,43.4788732 0.136413793,43.4788732 L5.39724138,43.4788732 C6.21614635,43.4788732 6.88,42.8167591 6.88,42 C6.88,41.1832409 6.21614635,40.5211268 5.39724138,40.5211268 Z" id="Shape" fill="#414F20" fill-rule="nonzero"></path>
                        <path d="M5.39724138,58.3474648 L0.136413793,58.3474648 C-0.682491181,58.3474648 -1.34634483,59.0095789 -1.34634483,59.826338 C-1.34634483,60.6430972 -0.682491181,61.3052113 0.136413793,61.3052113 L5.39724138,61.3052113 C6.21614635,61.3052113 6.88,60.6430972 6.88,59.826338 C6.88,59.0095789 6.21614635,58.3474648 5.39724138,58.3474648 Z" id="Shape" fill="#414F20" fill-rule="nonzero"></path>
                    </g>
                </g>
            </g>
        </g>
    </g>
</svg>