<svg id="レイヤー_1" data-name="レイヤー 1" xmlns="http://www.w3.org/2000/svg" viewBox="0 0 350 350"><defs><style>.cls-1{fill:#231815;}</style></defs><title>Interaction</title><path class="cls-1" d="M194.22,274.21a4.39,4.39,0,0,1-1.77-.37L63.54,217.06a4.4,4.4,0,0,1-2.25-5.8l13.89-31.54a4.4,4.4,0,0,1,5.8-2.25l128.91,56.78a4.4,4.4,0,0,1,2.25,5.8l-13.89,31.54A4.4,4.4,0,0,1,194.22,274.21ZM71.11,210.78,192,264l10.34-23.48L81.46,187.29Z"/><path class="cls-1" d="M190.47,229l-8.79-3.87,32.93-74.75c3.67-8.33,3.33-17.89-1-26.9a46.32,46.32,0,0,0-53.48-23.56c-9.55,2.91-16.83,9.11-20.5,17.44l-32.93,74.75-8.79-3.87,32.93-74.75c4.82-10.93,14.22-19,26.49-22.76a55.91,55.91,0,0,1,65,28.61c5.52,11.58,5.91,24,1.09,34.9Z"/><circle class="cls-1" cx="183.81" cy="246.4" r="7.28" transform="translate(-115.77 315.29) rotate(-66.23)"/><path class="cls-1" d="M82.32,284.36a5.2,5.2,0,0,1-4.76-7.3l20.67-46.92a5.2,5.2,0,0,1,9.52,4.19L87.08,281.26A5.2,5.2,0,0,1,82.32,284.36Z"/><path class="cls-1" d="M123.79,326a5.2,5.2,0,0,1-4.76-7.3l29.63-67.26a5.2,5.2,0,1,1,9.52,4.19l-29.63,67.26A5.2,5.2,0,0,1,123.79,326Z"/><path class="cls-1" d="M147.21,66.29a5.2,5.2,0,0,1-5-3.87l-8.48-31.93a5.2,5.2,0,1,1,10.05-2.67l8.48,31.93a5.2,5.2,0,0,1-5,6.54Z"/><path class="cls-1" d="M204.81,76.26a5.2,5.2,0,0,1-4.76-7.3L213.64,38.1a5.2,5.2,0,1,1,9.52,4.19L209.57,73.15A5.2,5.2,0,0,1,204.81,76.26Z"/><path class="cls-1" d="M256.59,112.55a5.2,5.2,0,0,1-2.41-9.81l27.3-14.26a5.2,5.2,0,0,1,4.82,9.22L259,112A5.18,5.18,0,0,1,256.59,112.55Z"/></svg>