<?xml version="1.0" encoding="UTF-8"?>
<svg width="200px" height="200px" viewBox="0 0 200 200" version="1.1" xmlns="http://www.w3.org/2000/svg" xmlns:xlink="http://www.w3.org/1999/xlink">
    <!-- Generator: Sketch 44.1 (41455) - http://www.bohemiancoding.com/sketch -->
    <title>interact</title>
    <desc>Created with Sketch.</desc>
    <defs></defs>
    <g id="Welcome" stroke="none" stroke-width="1" fill="none" fill-rule="evenodd">
        <g id="Desktop-HD" transform="translate(-620.000000, -2154.000000)">
            <g id="Group-5" transform="translate(0.000000, 1912.000000)" fill="#C4D797">
                <rect id="Rectangle" x="0" y="0" width="1440" height="800"></rect>
            </g>
            <g id="Group-7" transform="translate(345.000000, 2154.000000)">
                <g id="interact" transform="translate(275.000000, 0.000000)">
                    <rect id="Rectangle-2" fill="#FFFFFF" x="0" y="0" width="200" height="200"></rect>
                    <text id="Interact" font-family="Helvetica" font-size="24" font-weight="normal" letter-spacing="1.44000006" fill="#414F20">
                        <tspan x="54.7204685" y="171">Interact</tspan>
                    </text>
                    <g id="interaction" transform="translate(72.000000, 34.000000)" fill-rule="nonzero" fill="#414F20">
                        <path d="M36.9087836,69.6423762 C36.7412385,69.6426067 36.5754802,69.6076743 36.4220563,69.539802 L0.973454731,53.7988119 C0.36229111,53.5269302 0.0853254064,52.8071571 0.354733504,52.1908911 L4.17430588,43.4471287 C4.44399023,42.8309855 5.15794627,42.5517632 5.76923171,42.8233663 L41.2178332,58.5643564 C41.8289969,58.8362381 42.1059626,59.5560112 41.8365545,60.1722772 L38.0169821,68.9160396 C37.8229902,69.3581532 37.3883148,69.6430486 36.9087836,69.6423762 Z M3.05510793,52.0578218 L36.298312,66.8118812 L39.1416798,60.3025743 L5.90122558,45.5457426 L3.05510793,52.0578218 Z" id="Shape"></path>
                        <path d="M35.8775816,57.1089109 L33.460444,56.0360396 L42.5157729,35.3132673 C43.524976,33.0039604 43.4314803,30.3536634 42.2407857,27.8558416 C39.4913891,22.4424628 33.352254,19.7159017 27.5344696,21.3243564 C24.9083417,22.1310891 22.9064348,23.849901 21.8972317,26.1592079 L12.8419028,46.8819802 L10.4247652,45.8091089 L19.4800941,25.0863366 C20.8055325,22.0562376 23.3904123,19.8190099 26.7645054,18.7766337 C33.836956,16.7763332 41.3250272,20.0990905 44.6386742,26.7081188 C46.1566036,29.9184158 46.2638486,33.3615842 44.9384102,36.3833663 L35.8775816,57.1089109 Z" id="Shape"></path>
                        <ellipse id="Oval" transform="translate(34.047731, 61.929333) rotate(-66.230000) translate(-34.047731, -61.929333) " cx="34.0477306" cy="61.9293333" rx="2.00190691" ry="2.01821782"></ellipse>
                        <path d="M6.13771458,72.4562376 C5.65416606,72.4565095 5.20323744,72.2103915 4.93912427,71.8020437 C4.6750111,71.393696 4.63349613,70.8784427 4.82877545,70.4324752 L10.5127611,57.4249505 C10.8309314,56.6961534 11.6748913,56.365376 12.3977985,56.6861386 C13.1207056,57.0069012 13.4488096,57.8577375 13.1306394,58.5865347 L7.44665371,71.5968317 C7.21780098,72.1194726 6.70439765,72.4565562 6.13771458,72.4562376 Z" id="Shape"></path>
                        <path d="M17.5414343,84 C17.0578858,84.0002719 16.6069571,83.7541538 16.342844,83.3458061 C16.0787308,82.9374584 16.0372158,82.4222051 16.2324951,81.9762376 L24.3803662,63.329901 C24.5861863,62.8584519 25.0258543,62.5335133 25.5337515,62.4774865 C26.0416487,62.4214596 26.5406135,62.6428563 26.8426906,63.0582786 C27.1447678,63.4737008 27.2040646,64.0200361 26.9982445,64.4914851 L18.8503734,83.1378218 C18.6223488,83.6615472 18.1087683,83.9998348 17.5414343,84 L17.5414343,84 Z" id="Shape"></path>
                        <path d="M23.9816348,12.0011881 C23.335528,11.997799 22.7719465,11.5580328 22.6066987,10.9283168 L20.2748072,2.07643564 C20.1341134,1.57551407 20.2722553,1.03703246 20.6362063,0.667690574 C21.0001573,0.298348684 21.5333652,0.155536277 22.0311546,0.294072848 C22.528944,0.43260942 22.9139665,0.830968625 23.0384286,1.33623762 L25.3703202,10.1881188 C25.4845045,10.6197257 25.3937731,11.0803143 25.1246615,11.4351802 C24.8555498,11.7900462 24.4384635,11.9990951 23.9953841,12.0011881 L23.9816348,12.0011881 Z" id="Shape"></path>
                        <path d="M39.8208982,14.7651485 C39.3373497,14.7654204 38.8864211,14.5193023 38.6223079,14.1109546 C38.3581947,13.7026069 38.3166798,13.1873536 38.5119591,12.7413861 L42.2490353,4.18613861 C42.4548554,3.71468953 42.8945233,3.38975095 43.4024205,3.3337241 C43.9103178,3.27769725 44.4092825,3.49909394 44.7113597,3.91451618 C45.0134368,4.32993842 45.0727336,4.87627368 44.8669136,5.34772277 L41.1298373,13.9029703 C40.9018127,14.4266957 40.3882322,14.7649833 39.8208982,14.7651485 L39.8208982,14.7651485 Z" id="Shape"></path>
                        <path d="M54.0597361,24.8257426 C53.4009787,24.8262787 52.8271008,24.3730311 52.6699385,23.7280832 C52.5127761,23.0831353 52.8130027,22.4133988 53.3970169,22.1061386 L60.9041678,18.1528713 C61.6042942,17.7838795 62.4685683,18.0569414 62.834578,18.7627723 C63.2005877,19.4686031 62.9297326,20.3399191 62.2296061,20.7089109 L54.7224552,24.6732673 C54.5169913,24.7772655 54.2896109,24.8295801 54.0597361,24.8257426 L54.0597361,24.8257426 Z" id="Shape"></path>
                    </g>
                </g>
            </g>
        </g>
    </g>
</svg>