<?xml version="1.0" encoding="UTF-8"?>
<svg width="200px" height="200px" viewBox="0 0 200 200" version="1.1" xmlns="http://www.w3.org/2000/svg" xmlns:xlink="http://www.w3.org/1999/xlink">
    <!-- Generator: Sketch 44.1 (41455) - http://www.bohemiancoding.com/sketch -->
    <title>web</title>
    <desc>Created with Sketch.</desc>
    <defs></defs>
    <g id="Welcome" stroke="none" stroke-width="1" fill="none" fill-rule="evenodd">
        <g id="Desktop-HD" transform="translate(-345.000000, -2154.000000)">
            <g id="Group-5" transform="translate(0.000000, 1912.000000)" fill="#C4D797">
                <rect id="Rectangle" x="0" y="0" width="1440" height="800"></rect>
            </g>
            <g id="Group-7" transform="translate(345.000000, 2154.000000)">
                <g id="web">
                    <rect id="Rectangle-2" fill="#FFFFFF" x="0" y="0" width="200" height="200"></rect>
                    <text id="Web" font-family="Helvetica" font-size="24" font-weight="normal" letter-spacing="1.44000006" fill="#414F20">
                        <tspan x="73.5771093" y="171">Web</tspan>
                    </text>
                    <g transform="translate(51.000000, 35.000000)">
                        <path d="M5.85286585,0.114414414 L88.1471341,0.114414414 L88.1471341,0.114414414 C91.3463446,0.114414414 93.9398171,2.7078869 93.9398171,5.90709734 L93.9398171,60.095718 L93.9398171,60.095718 C93.9398171,63.2949284 91.3463446,65.8884009 88.1471341,65.8884009 L5.85286585,65.8884009 L5.85286585,65.8884009 C2.65365541,65.8884009 0.0601829268,63.2949284 0.0601829268,60.095718 L0.0601829268,5.90709734 L0.0601829268,5.90709734 C0.0601829268,2.7078869 2.65365541,0.114414414 5.85286585,0.114414414 L5.85286585,0.114414414 Z M7.63304878,7.47412162 C6.51332513,7.47412162 5.60560976,8.38183699 5.60560976,9.50156065 L5.60560976,50.5688673 C5.60560976,51.6885909 6.51332513,52.5963063 7.63304878,52.5963063 L7.63304878,52.5963063 L86.3640854,52.5963063 C87.483809,52.5963063 88.3915244,51.6885909 88.3915244,50.5688673 L88.3915244,9.50156065 C88.3915244,8.38183699 87.483809,7.47412162 86.3640854,7.47412162 L7.63304878,7.47412162 Z M47,61.1115991 C48.3849214,61.1115991 49.507622,59.9910505 49.507622,58.6087838 C49.507622,57.2265171 48.3849214,56.1059685 47,56.1059685 C45.6150786,56.1059685 44.492378,57.2265171 44.492378,58.6087838 C44.492378,59.9910505 45.6150786,61.1115991 47,61.1115991 Z" id="Combined-Shape" fill="#414F20" fill-rule="nonzero"></path>
                        <path d="M54.4512195,81.6318243 L39.5487805,81.6318243 C38.8437805,81.6318243 38.2677439,80.4075901 38.2677439,78.9116216 L38.2677439,65.5937838 C38.2677439,65.1132432 38.8409146,65.1132432 39.5487805,65.1132432 L54.4512195,65.1132432 C55.1562195,65.1132432 55.7322561,65.1132432 55.7322561,65.5937838 L55.7322561,78.9116216 C55.7465854,80.4075901 55.1676829,81.6318243 54.4512195,81.6318243 Z" id="Shape" fill="#414F20" fill-rule="nonzero"></path>
                        <path d="M14.9482927,84.9212387 L79.0517073,84.9212387 C80.8718897,84.9212387 82.347439,83.4485177 82.347439,81.6318243 C82.347439,79.8151309 80.8718897,78.3424099 79.0517073,78.3424099 L14.9482927,78.3424099 C13.1281103,78.3424099 11.652561,79.8151309 11.652561,81.6318243 C11.652561,83.4485177 13.1281103,84.9212387 14.9482927,84.9212387 Z" id="Shape" fill="#414F20" fill-rule="nonzero"></path>
                        <path d="" id="Path-2" stroke="#414F20" stroke-width="0.5"></path>
                    </g>
                    <rect id="Rectangle" x="1" y="0" width="200" height="200"></rect>
                </g>
            </g>
        </g>
    </g>
</svg>