<svg id="レイヤー_1" data-name="レイヤー 1" xmlns="http://www.w3.org/2000/svg" viewBox="0 0 512 512"><defs><style>.cls-1{fill:#414f20;}</style></defs><title>github</title><g id="_5151e0c8492e5103c096af88a5006e1e" data-name="5151e0c8492e5103c096af88a5006e1e"><path id="_パス_" data-name="&lt;パス&gt;" class="cls-1" d="M7,266.75c22.59-5.64,53.3-13.32,107.12-14.75a95.6,95.6,0,0,1-4-9.23c-20.94-.18-85.43,2.79-107.52,8.25a1.32,1.32,0,0,1-.39,0,1.65,1.65,0,0,1-.39-3.25c21.89-5.41,84.82-8.41,107.12-8.35-5-14.75-7.23-31.65-7.23-50.52,0-33.52,10.44-46.16,24.46-64-10.72-38.2,3.85-64.31,3.85-64.31s22.53-4.67,65.13,25.83c23.09-9.89,84.65-10.71,113.77-2.2,17.88-11.82,50.57-28.58,63.77-23.9,3.57,5.76,11.26,22.51,4.66,59.35,4.49,8.08,27.76,25.29,27.86,73.93-.38,17.94-2.24,33.08-5.7,45.9,55.54-.47,88.21,4.12,110.71,8.26a1.69,1.69,0,0,1,1.32,1.93,1.67,1.67,0,0,1-1.61,1.35l-.33,0c-22.47-4.16-55.19-8.73-111.06-8.22q-1.47,4.88-3.26,9.29c19,.63,71.23,2.67,113.82,15.69a1.65,1.65,0,0,1-.48,3.23,1.4,1.4,0,0,1-.48-.08c-43.18-13.2-96.54-15-114.28-15.6-15.44,33.93-47.12,46.59-98.32,51.86,16.6,10.45,21.35,23.55,21.35,59s-.48,40.21-.36,48.36c.17,13.38,19.78,19.79,19.05,24.1s-16.4,3.61-23.73,1c-20.76-7.23-18.69-24.5-18.69-24.5l-.69-47.4s1.42-25.52-8-25.52V419.9c0,16.86,11.8,22,11.8,28.22,0,10.71-21.56-1-28.2-7.7-10.13-10.17-9-31.73-8.73-48.79.23-16.47-.15-52.49-.15-52.49l-6.88.14s2.82,78.69-3.63,93c-8.34,18.41-33.48,24.74-33.48,16.36,0-5.64,6.2-3.85,9.62-16.49,2.93-10.75,1.93-91,1.93-91S218.63,346,218.63,361c0,6.88-.19,46.16-.19,57.85,0,14.7-20.88,23.08-30.92,23.08-5.08,0-11.4-.25-11.4-2.94,0-6.8,19.1-10.79,19.1-24.94,0-12.27-.27-43.83-.27-43.83a153.12,153.12,0,0,1-23.37,1.65c-34.63,0-45.58-22.1-50.79-34.46-6.78-16.11-15.58-23.67-24.92-29.72-5.74-3.71-7.06-8.1-.42-9.34,30.66-5.77,38.49,34.76,59,41.22,14.61,4.61,33.39,2.62,42.73-3.42,1.24-12.39,10.16-23.09,17.59-28.73-52.07-5-82.94-23.08-98.94-52.15-54.47,1.31-85.37,9-108,14.69L3,271.17a2,2,0,0,1-.4,0A1.65,1.65,0,0,1,2.16,268C3.72,267.57,5.32,267.17,7,266.75Z"/></g></svg>