<svg id="レイヤー_1" data-name="レイヤー 1" xmlns="http://www.w3.org/2000/svg" viewBox="0 0 512 512"><defs><style>.cls-1{fill:#414f20;}</style></defs><title>gmail</title><g id="_7935ec95c421cee6d86eb22ecd11f972" data-name="7935ec95c421cee6d86eb22ecd11f972"><path class="cls-1" d="M511.5,446.75V65.25H.5V446.75h511Zm-73.26-78.2v74.22H79.53V372.53h.61l1.82-.61L216.63,263.49,257.36,298l36.18-31.78,144.7,102.32Zm0-13.12L301.13,259.51,438.24,140.69V355.43ZM415.45,69.21,396.9,86.93l-8.81,8.57-8.2,8.53L371.37,112l-7.9,7.94-7.6,7.33-7,7.33-7.29,6.73L334.88,148l-12.46,12.52-11.87,11.3L305.1,177l-4.87,5.19-5.16,4.29-4.57,4.27-8.2,8-4,3.35L275,205.46l-3.34,2.72-2.75,3.07-5.16,4.28L261.62,217l-1.53,1.85-1.82.91L257.06,221l-1.52,1.21L101.1,68.61l314.35.61ZM208.73,256.76,79.53,360l.3-212.89,128.9,109.66Z"/></g></svg>