<svg id="Layer_1" data-name="Layer 1" xmlns="http://www.w3.org/2000/svg" viewBox="0 0 100 100"><defs><style>.cls-1{fill:#414f20;}</style></defs><title>term</title><path class="cls-1" d="M67.44,69.44h-9v9h9ZM54.74,45.32h-9v9h9Zm12.7,12.06h-9v9h9ZM80.13,45.32h-9v9h9ZM54.74,57.38h-9v9h9Zm12.7-12.06h-9v9h9ZM80.13,57.38h-9v9h9ZM29.35,69.44h-9v9h9Zm0-12.06h-9v9h9ZM77.81,13.55v4a7.51,7.51,0,1,1-9.93,0v-4H32.8v4a7.51,7.51,0,1,1-9.93,0v-4H6.14V93.43H93.86V13.55Zm8,71.86H14.16V35.52H85.85ZM42,45.32H33v9h9Zm0,24.12H33v9h9Zm12.69,0h-9v9h9ZM42,57.38H33v9h9ZM27.84,27.5a3.74,3.74,0,0,0,3.74-3.74V10.31a3.74,3.74,0,0,0-7.47,0V23.77A3.74,3.74,0,0,0,27.84,27.5Zm45,0a3.74,3.74,0,0,0,3.74-3.74V10.31a3.74,3.74,0,0,0-7.47,0V23.77A3.74,3.74,0,0,0,72.84,27.5Z"/></svg>