<svg id="Layer_1" data-name="Layer 1" xmlns="http://www.w3.org/2000/svg" viewBox="0 0 100 100"><defs><style>.cls-1{fill:#414f20;}</style></defs><title>work_skill</title><path class="cls-1" d="M44.61,80.12l-3-3-6.4,6.4a9.05,9.05,0,1,0,12.8,0ZM38.39,42.87,62.66,18.6l2.07-2.07A9.06,9.06,0,0,0,51.93,3.71L25.7,30.07a12.85,12.85,0,0,1,12.69,12.8Zm42.44,7.74-3.36-3.36L58.41,28.19,34.62,52l-2.68-2.68a9.05,9.05,0,1,0-12.8,0L47.29,77.45l3.36,3.36a12.82,12.82,0,0,1,3.76,9.07s0,.09,0,.13L80.83,63.57a9.16,9.16,0,0,0,0-13ZM45.43,62.8,41,58.34,59.72,39.61l4.46,4.46ZM55.79,73.16l-4.46-4.46L70.08,50l4.46,4.46Z"/></svg>