<svg id="Layer_1" data-name="Layer 1" xmlns="http://www.w3.org/2000/svg" viewBox="0 0 100 100"><defs><style>.cls-1{fill:#414f20;}</style></defs><title>work_role</title><path class="cls-1" d="M60.83,52.73V65.41H39.23V52.73H2.83V90.15H97.24V52.73ZM39.23,38.55H60.83v8.63H97.23V30.13a4.6,4.6,0,0,0-4.6-4.6h-17V19.61a9.76,9.76,0,0,0-9.76-9.76H34.09a9.76,9.76,0,0,0-9.76,9.76v5.92h-17a4.6,4.6,0,0,0-4.6,4.6V47.19H39.23ZM31,19.61a3.11,3.11,0,0,1,3.11-3.11H65.91A3.11,3.11,0,0,1,69,19.61v5.92H31ZM55.39,60V44H44.61V60Z"/></svg>